<svg width="40" height="40" viewBox="0 0 40 40" fill="none" xmlns="http://www.w3.org/2000/svg">
<g id="Group">
<path id="Vector" d="M8.33333 5H33.3333C34.2174 5 35.0652 5.35119 35.6904 5.97631C36.3155 6.60143 36.6667 7.44928 36.6667 8.33333V13.3333C36.6667 14.2174 36.3155 15.0652 35.6904 15.6904C35.0652 16.3155 34.2174 16.6667 33.3333 16.6667H30V21.6667C30 23.4348 29.2976 25.1305 28.0474 26.3807C26.7971 27.631 25.1014 28.3333 23.3333 28.3333H13.3333C11.5652 28.3333 9.86953 27.631 8.61928 26.3807C7.36904 25.1305 6.66666 23.4348 6.66666 21.6667V6.66667C6.66666 6.22464 6.84226 5.80072 7.15482 5.48816C7.46738 5.17559 7.8913 5 8.33333 5ZM30 8.33333V13.3333H33.3333V8.33333H30ZM3.33333 31.6667H33.3333V35H3.33333V31.6667Z" fill="#D6D533"/>
</g>
</svg>
