<svg width="40" height="40" viewBox="0 0 40 40" fill="none" xmlns="http://www.w3.org/2000/svg">
<g id="Group">
<path id="Vector" d="M20 36.6667C10.795 36.6667 3.33334 29.205 3.33334 20C3.33334 10.795 10.795 3.33337 20 3.33337C29.205 3.33337 36.6667 10.795 36.6667 20C36.6667 29.205 29.205 36.6667 20 36.6667ZM20 25C21.3261 25 22.5979 24.4733 23.5355 23.5356C24.4732 22.5979 25 21.3261 25 20C25 18.674 24.4732 17.4022 23.5355 16.4645C22.5979 15.5268 21.3261 15 20 15C18.6739 15 17.4022 15.5268 16.4645 16.4645C15.5268 17.4022 15 18.674 15 20C15 21.3261 15.5268 22.5979 16.4645 23.5356C17.4022 24.4733 18.6739 25 20 25Z" fill="#D6D533"/>
</g>
</svg>
