<svg width="40" height="40" viewBox="0 0 40 40" fill="none" xmlns="http://www.w3.org/2000/svg">
<g id="Group">
<path id="Vector" d="M33.3334 5V28.3333C33.333 29.8008 32.8485 31.2272 31.9549 32.3913C31.0613 33.5554 29.8086 34.3921 28.3911 34.7716C26.9735 35.1512 25.4703 35.0525 24.1146 34.4907C22.7589 33.9289 21.6264 32.9355 20.8928 31.6645C20.1592 30.3935 19.8655 28.916 20.0571 27.4611C20.2488 26.0062 20.9152 24.6551 21.9529 23.6175C22.9907 22.5799 24.3418 21.9137 25.7967 21.7222C27.2517 21.5307 28.7291 21.8246 30 22.5583V10H15V28.3333C14.9997 29.8008 14.5152 31.2272 13.6216 32.3913C12.728 33.5554 11.4753 34.3921 10.0577 34.7716C8.64018 35.1512 7.13699 35.0525 5.78128 34.4907C4.42556 33.9289 3.29309 32.9355 2.55949 31.6645C1.82588 30.3935 1.53213 28.916 1.7238 27.4611C1.91547 26.0062 2.58185 24.6551 3.61958 23.6175C4.65732 22.5799 6.00843 21.9137 7.46337 21.7222C8.91832 21.5307 10.3958 21.8246 11.6667 22.5583V5H33.3334Z" fill="#D6D533"/>
</g>
</svg>
